# xmcd CD database file
#
# Track frame offsets:
#	150
#	15328
#	29240
#	43015
#	60081
#	75330
#	88867
#	102809
#	116231
#	130891
#	145047
#	159873
#	175450
#	190229
#
# Disc length: 2726 seconds
#
# Revision: 1
# Processed by: cddbd v1.5.2PL0 Copyright (c) Steve Scherf et al.
# Submitted via: CDex 1.51
#
DISCID=ae0aa40e
DTITLE=Flippers - Aloha He - Stern der Südsee
DYEAR=2009
DGENRE=Schlager
TTITLE0=Aloha He - Stern der Südsee
TTITLE1=Du hast für mich die schönsten Beine
TTITLE2=Vaya con dios
TTITLE3=Mein größter Wunsch
TTITLE4=Du gehst in die Geschichte ein
TTITLE5=Ich hab sechs Richtige
TTITLE6=Für die Liebe ist es nie zu spät
TTITLE7=Keine Angst das ist die Liebe
TTITLE8=Du bist sensationell
TTITLE9=Gebrochenes Herz
TTITLE10=Ein Bett unter Sternen
TTITLE11=Und ewig bleibt die Liebe
TTITLE12=Du hast das Lachen nie verlernt
TTITLE13=Mein ganzes Leben hab ich nach dir gesucht
EXTD=YEAR: 2009
EXTT0=
EXTT1=
EXTT2=
EXTT3=
EXTT4=
EXTT5=
EXTT6=
EXTT7=
EXTT8=
EXTT9=
EXTT10=
EXTT11=
EXTT12=
EXTT13=
PLAYORDER=
